<?xml version="1.0" standalone="no"?>
<svg viewBox="0 0 200 200" xmlns="http://www.w3.org/2000/svg">
  <path fill="#8A3FFC" d="M44,-67.4C56.4,-60.4,65.4,-47.2,68,-33.4C70.6,-19.6,66.7,-5.3,65.2,9.8C63.6,24.8,64.3,40.5,58.2,54.2C52.2,67.8,39.4,79.2,24.3,84.6C9.1,89.9,-8.4,89.1,-21.1,81.1C-33.7,73.1,-41.6,58,-52.6,45.4C-63.6,32.9,-77.7,23.1,-82,10.2C-86.3,-2.6,-80.7,-18.5,-73.1,-32.6C-65.4,-46.7,-55.7,-59.2,-43.2,-66C-30.7,-72.9,-15.3,-74.2,0.2,-74.6C15.8,-74.9,31.6,-74.3,44,-67.4Z" transform="translate(100 100)" />
</svg>
